<svg xmlns="http://www.w3.org/2000/svg" viewBox="0 0 128 128"><defs><linearGradient id="a" x1="6" x2="235" y1="33" y2="344" gradientTransform="translate(-.06 .02) scale(.2766)" gradientUnits="userSpaceOnUse"><stop offset="0" stop-color="#41d1ff"/><stop offset="1" stop-color="#bd34fe"/></linearGradient><linearGradient id="b" x1="194.651" x2="236.076" y1="8.818" y2="292.989" gradientTransform="translate(-.06 .02) scale(.2766)" gradientUnits="userSpaceOnUse"><stop offset="0" stop-color="#ffea83"/><stop offset=".083" stop-color="#ffdd35"/><stop offset="1" stop-color="#ffa800"/></linearGradient></defs><path fill="url(#a)" d="M124.766 19.52 67.324 122.238c-1.187 2.121-4.234 2.133-5.437.02L3.305 19.532c-1.313-2.305.652-5.087 3.261-4.613L64.07 24.232a3.28 3.28 0 0 0 1.195 0l56.282-9.276c2.603-.429 4.567 2.376 3.219 4.564"/><path fill="url(#b)" d="M91.46 1.43 48.954 9.758a1.56 1.56 0 0 0-1.258 1.437l-2.617 44.168a1.56 1.56 0 0 0 1.942 1.605l9.102-2.188a1.56 1.56 0 0 1 1.916 1.87l-3.584 20.199a1.56 1.56 0 0 0 1.894 1.839l8.865-2.008a1.56 1.56 0 0 1 1.88 1.87l-5.833 37.617c-.377 2.43 2.778 3.663 4.234 1.653l46.98-64.954c1.168-1.617.02-3.87-1.883-3.699l-11.676 1.05a1.56 1.56 0 0 1-1.649-2.03l9.308-32.27a1.56 1.56 0 0 0-1.55-2.04H93.11a1.56 1.56 0 0 1-1.543-1.3l-2.113-11.594a1.56 1.56 0 0 0-1.543-1.301z"/></svg>
